<svg width="315" height="405" viewBox="0 0 315 405" fill="none" xmlns="http://www.w3.org/2000/svg">
<circle cx="157.35" cy="247.65" r="157.35" fill="#FF9D9D"/>
<g clip-path="url(#clip0)">
<path d="M258.467 97.387L218.724 57.6443C217.925 56.8405 216.82 56.3458 215.597 56.3458H78.6749C66.4977 56.3458 56.5907 66.2527 56.5907 78.43V299.272C56.5907 311.449 66.4977 321.356 78.6749 321.356H237.681C249.858 321.356 259.765 311.449 259.765 299.272V100.514C259.765 99.2907 259.271 98.1865 258.467 97.387Z" fill="white"/>
<path d="M258.467 97.387L218.724 57.6443C217.925 56.8405 216.82 56.3458 215.597 56.3458H78.6749C66.4977 56.3458 56.5907 66.2527 56.5907 78.43V299.272C56.5907 311.449 66.4977 321.356 78.6749 321.356H237.681C249.858 321.356 259.765 311.449 259.765 299.272V100.514C259.765 99.2907 259.271 98.1865 258.467 97.387ZM220.014 71.4249L244.686 96.0973H220.014V71.4249ZM250.932 299.272C250.932 306.577 244.987 312.522 237.681 312.522H78.6749C71.3694 312.522 65.4244 306.577 65.4244 299.272V78.43C65.4244 71.1245 71.3694 65.1794 78.6749 65.1794H211.18V100.514C211.18 102.957 213.159 104.931 215.597 104.931H250.932V299.272Z" fill="#404040"/>
<path d="M126.235 179.317C130.574 179.317 134.092 175.799 134.092 171.46C134.092 167.121 130.574 163.604 126.235 163.604C121.896 163.604 118.379 167.121 118.379 171.46C118.379 175.799 121.896 179.317 126.235 179.317Z" fill="#404040"/>
<path d="M190.122 179.317C194.461 179.317 197.978 175.799 197.978 171.46C197.978 167.121 194.461 163.604 190.122 163.604C185.783 163.604 182.265 167.121 182.265 171.46C182.265 175.799 185.783 179.317 190.122 179.317Z" fill="#404040"/>
<path d="M143.264 204.259L142.095 198.746L173.09 192.171L174.26 197.684L143.264 204.259Z" fill="#404040"/>
</g>
<line x1="19.8104" y1="21.9019" x2="44.9998" y2="43.4157" stroke="#404040" stroke-width="10"/>
<line x1="3.80887" y1="45.2076" x2="33.7082" y2="59.4688" stroke="#404040" stroke-width="10"/>
<line x1="45.9208" y1="2.84744" x2="60.182" y2="32.7467" stroke="#404040" stroke-width="10"/>
<defs>
<clipPath id="clip0">
<rect width="265.01" height="265.01" fill="white" transform="translate(25.6729 56.3458)"/>
</clipPath>
</defs>
</svg>
