<svg width="14" height="14" viewBox="0 0 14 14" fill="none" xmlns="http://www.w3.org/2000/svg">
<path d="M3.70999 1.37083L2.75624 0.41474C1.15734 1.63159 0.0997576 3.52391 0 5.66241H1.33758C1.43734 3.89199 2.34734 2.33975 3.70999 1.37083ZM12.6624 5.66241H14C13.9002 3.52391 12.8427 1.63159 11.2385 0.41474L10.2824 1.37083C11.6527 2.33975 12.5627 3.89199 12.6624 5.66241ZM11.3458 5.99783C11.3458 3.9451 9.92247 2.22659 8.00215 1.77274V1.31717C8.00215 0.763012 7.55532 0.314423 6.99999 0.314423C6.44465 0.314423 5.99782 0.763012 5.99782 1.31717V1.77274C4.0775 2.22659 2.65416 3.94566 2.65416 5.99783V9.67457L1.31716 11.0104V11.6789H12.6828V11.0104L11.3458 9.67457C11.3458 9.67457 11.3458 5.99783 11.3458 5.99783ZM6.99999 13.6856C7.09391 13.6856 7.18023 13.6797 7.26831 13.6587C7.70114 13.5724 8.06338 13.2714 8.22963 12.8689C8.2967 12.7102 8.33754 12.5358 8.33754 12.348H5.6624C5.6624 13.0836 6.26441 13.6856 6.99999 13.6856Z" fill="white"/>
</svg>
