<svg width="15" height="15" viewBox="0 0 15 15" fill="none" xmlns="http://www.w3.org/2000/svg">
<g clip-path="url(#clip0)">
<path d="M14.5695 1.63181C14.2753 1.56869 13.986 1.75608 13.923 2.0501L13.5273 3.89656C12.2675 1.74741 9.95523 0.398773 7.4209 0.398773C3.51798 0.398773 0.342743 3.57397 0.342743 7.47693C0.342743 7.77761 0.586493 8.0214 0.887217 8.0214C1.1879 8.0214 1.43169 7.77761 1.43169 7.47693C1.43169 4.17446 4.11843 1.48772 7.4209 1.48772C9.57392 1.48772 11.5378 2.63778 12.601 4.46895L10.7858 4.07994C10.4917 4.01691 10.2023 4.20425 10.1393 4.49827C10.0764 4.79228 10.2637 5.08177 10.5577 5.14475L13.6736 5.8125C13.7266 5.82386 13.7803 5.82713 13.8333 5.82269C13.9216 5.81524 14.0077 5.78627 14.0835 5.73723C14.2047 5.65878 14.2898 5.53538 14.3201 5.39421L14.9879 2.27825C15.0508 1.98428 14.8635 1.69488 14.5695 1.63181Z" fill="#0B99B2"/>
<path d="M14.0216 6.76326C13.7211 6.7732 13.4854 7.02487 13.4954 7.32538C13.5481 8.9243 12.9752 10.448 11.8819 11.616C10.7886 12.7839 9.30601 13.4562 7.70713 13.509C7.64049 13.5112 7.57419 13.5123 7.50781 13.5123C5.42157 13.5122 3.49971 12.4287 2.41434 10.6732L4.30679 11.1806C4.59724 11.2585 4.89582 11.0862 4.97371 10.7957C5.05159 10.5053 4.87927 10.2067 4.58883 10.1288L1.51086 9.30351C1.37139 9.26618 1.22273 9.2857 1.09771 9.35783C0.972616 9.42996 0.881363 9.54892 0.843947 9.68839L0.0187442 12.7664C-0.0591372 13.0569 0.113177 13.3554 0.403621 13.4334C0.450881 13.446 0.498272 13.4521 0.544966 13.4521C0.785318 13.4521 1.00533 13.2917 1.07053 13.0485L1.53438 11.3185C2.82474 13.3503 5.0708 14.6013 7.50755 14.6012C7.58582 14.6012 7.66453 14.6 7.74311 14.5974C9.63269 14.5349 11.3849 13.7404 12.6769 12.3601C13.969 10.9799 14.6462 9.17907 14.5837 7.28944C14.5738 6.98898 14.322 6.75259 14.0216 6.76326Z" fill="#0B99B2"/>
</g>
<defs>
<clipPath id="clip0">
<rect width="15" height="15" fill="white"/>
</clipPath>
</defs>
</svg>
